<?xml version="1.0" encoding="UTF-8"?> <svg xmlns="http://www.w3.org/2000/svg" id="Слой_1" data-name="Слой 1" viewBox="0 0 346.26 111.72"> <defs> <style>.cls-1{fill:#fff;}</style> </defs> <path class="cls-1" d="M441.82,365.55H154a29.28,29.28,0,0,0-29.19,29.19v53.33A29.28,29.28,0,0,0,154,477.27H441.82a29.29,29.29,0,0,0,29.2-29.2V394.74A29.28,29.28,0,0,0,441.82,365.55ZM186.75,450.08h-16.1l-21.34-56.36H165l13.69,39.45,13.68-39.45h15.71ZM238.68,405h-7.25v33.82h7.25v11.27h-29V438.81h7.25V405h-7.25V393.72h29ZM295,450.08h-15.3l-19.32-33.81v33.81h-14.5V393.72h15.3l19.32,33.82V393.72H295Zm57.16-32.2q0,8.44-3.82,12.27T336.1,434H316.78v16.11H302.29V393.72H336.1q8.46,0,12.28,3.82t3.82,12.28ZM386,405h-7.25v33.82H386v11.27H357V438.81h7.25V405H357V393.72h29Zm56.35,45.09H427.08l-19.32-33.82v33.82h-14.5V393.72h15.3l19.32,33.82V393.72h14.49Z" transform="translate(-124.76 -365.55)"></path> <path class="cls-1" d="M332.88,405h-16.1V422.7h16.1q4.83,0,4.83-4.82v-8.06Q337.71,405,332.88,405Z" transform="translate(-124.76 -365.55)"></path> </svg> 